<?xml version="1.0" standalone="no"?>
<!DOCTYPE svg PUBLIC "-//W3C//DTD SVG 20010904//EN"
 "http://www.w3.org/TR/2001/REC-SVG-20010904/DTD/svg10.dtd">
<svg version="1.0" xmlns="http://www.w3.org/2000/svg"
 width="726.000000pt" height="197.000000pt" viewBox="0 0 726.000000 197.000000"
 preserveAspectRatio="xMidYMid meet">
<metadata>
Created by potrace 1.16, written by Peter Selinger 2001-2019
</metadata>
<g transform="translate(0.000000,197.000000) scale(0.100000,-0.100000)"
fill="#000000" stroke="none">
<path d="M1007 1683 c-57 -19 -131 -81 -156 -132 -36 -70 -44 -134 -27 -193
20 -70 69 -142 114 -169 20 -13 39 -24 41 -25 1 -2 -4 -25 -14 -53 -21 -65
-65 -103 -150 -131 -37 -12 -82 -35 -100 -51 -36 -32 -51 -35 -76 -16 -45 34
-54 122 -23 223 25 84 25 85 28 129 7 97 -57 172 -154 180 -107 8 -195 -128
-145 -225 36 -70 129 -102 184 -64 l23 17 -8 -34 c-5 -19 -8 -68 -9 -110 0
-65 4 -81 26 -115 14 -22 42 -48 62 -59 33 -17 36 -22 36 -64 -1 -52 12 -92
41 -129 29 -36 25 -50 -17 -58 -88 -16 -97 -40 -48 -128 36 -64 84 -116 109
-116 21 0 56 31 56 50 0 11 -11 26 -23 35 -16 10 -24 25 -25 45 -1 26 3 30 26
30 42 0 101 19 145 47 21 13 41 22 44 19 3 -2 -2 -29 -11 -59 -15 -51 -14 -85
3 -88 3 -1 54 -3 113 -4 97 -3 109 -2 118 15 16 30 2 46 -67 75 -63 27 -65 29
-59 59 8 37 41 86 78 115 l26 21 19 -47 c10 -27 18 -50 19 -53 0 -3 4 -27 8
-55 12 -71 29 -88 86 -81 39 5 118 11 273 21 21 1 43 7 48 12 12 12 25 65 34
138 4 28 16 63 27 79 26 37 12 74 -32 82 -21 5 -37 18 -56 51 -18 32 -38 51
-69 64 -23 10 -48 26 -55 34 -7 8 -33 24 -59 36 -51 22 -115 79 -137 121 -8
15 -14 29 -14 31 0 2 23 14 50 26 78 35 127 115 135 223 4 56 -18 92 -64 101
-25 5 -36 18 -60 64 -56 111 -186 158 -314 116z"/>
<path d="M5147 1593 c-4 -3 -7 -53 -7 -110 l0 -103 110 0 110 0 0 110 0 110
-103 0 c-57 0 -107 -3 -110 -7z"/>
<path d="M5480 1490 l0 -110 110 0 110 0 0 110 0 110 -110 0 -110 0 0 -110z"/>
<path d="M2040 1015 l0 -575 110 0 110 0 0 123 0 123 53 52 53 53 117 -176
117 -175 116 0 c91 0 115 3 111 13 -3 7 -73 111 -156 230 -83 120 -152 221
-154 226 -1 5 63 84 143 176 80 92 147 171 148 176 3 6 -43 9 -114 7 l-118 -3
-156 -174 -155 -174 -3 337 -2 336 -110 0 -110 0 0 -575z"/>
<path d="M3168 1279 c-174 -19 -320 -153 -357 -327 -66 -314 182 -574 500
-525 146 23 259 107 322 241 30 64 32 73 32 187 0 114 -2 123 -32 187 -40 85
-113 160 -195 198 -55 26 -80 32 -178 44 -14 1 -55 -1 -92 -5z m163 -210 c158
-80 152 -354 -11 -436 -59 -30 -105 -29 -171 5 -76 38 -110 96 -117 195 -4 60
0 82 17 124 54 123 170 170 282 112z"/>
<path d="M4182 1278 c-79 -9 -144 -40 -199 -95 l-43 -42 0 64 0 65 -100 0
-100 0 0 -415 0 -415 110 0 110 0 0 243 0 242 30 52 c54 95 163 140 223 93 59
-47 61 -60 65 -357 l4 -273 109 0 109 0 0 245 c0 267 2 277 59 338 32 36 92
67 126 67 39 0 83 -27 102 -63 16 -28 18 -67 21 -309 l3 -278 110 0 110 0 -3
328 c-3 317 -4 329 -26 377 -39 85 -84 120 -172 134 -114 18 -234 -23 -311
-106 -43 -46 -49 -50 -49 -30 0 24 -58 96 -91 113 -44 22 -121 31 -197 22z"/>
<path d="M6270 1278 c-79 -9 -177 -55 -219 -104 l-31 -35 0 66 0 65 -100 0
-100 0 0 -415 0 -415 110 0 110 0 0 245 c0 275 0 276 70 339 76 69 142 83 201
43 54 -36 58 -62 58 -359 l1 -268 110 0 110 0 0 307 c0 341 -7 390 -62 457
-56 68 -131 89 -258 74z"/>
<path d="M5140 855 l0 -415 110 0 110 0 0 415 0 415 -110 0 -110 0 0 -415z"/>
<path d="M5480 855 l0 -415 110 0 110 0 0 415 0 415 -110 0 -110 0 0 -415z"/>
<path d="M6700 555 l0 -115 90 0 90 0 0 115 0 115 -90 0 -90 0 0 -115z"/>
</g>
</svg>
